<svg width="429" height="530" viewBox="0 0 429 530" fill="none" xmlns="http://www.w3.org/2000/svg">
<path d="M0.368774 57.5264V495.136C0.368774 517.269 22.5217 532.801 43.5087 524.647C106.081 500.572 231.225 470.674 385.519 526.976C406.117 534.742 428.27 519.211 428.27 497.078V57.5264C428.27 43.5478 418.942 31.1223 405.728 27.2393C349.763 10.1543 197.413 -24.4041 22.9103 27.2393C9.6963 31.1223 0.368774 43.5478 0.368774 57.5264Z" fill="#FFB703"/>
<path d="M261.151 320.016C241.719 329.723 220.732 326.617 214.125 313.415C207.518 300.213 217.623 281.574 237.055 271.867C244.439 268.372 251.824 266.431 258.431 266.431C260.374 266.431 262.317 264.489 262.317 262.548V196.538C262.317 194.984 260.763 193.431 259.208 193.431H156.605C155.051 193.431 153.496 194.984 153.496 196.538V282.351C153.496 282.351 153.496 282.739 153.885 282.739C160.492 295.941 150.387 314.58 130.954 324.287C111.522 333.994 90.535 330.888 83.928 317.686C77.321 304.484 87.4258 285.846 106.858 276.138C113.854 272.644 121.238 270.702 127.845 270.702C129.788 270.702 131.732 268.761 131.732 266.819V158.485C131.732 153.437 136.007 149.165 141.059 149.165H275.92C280.972 149.165 285.247 153.437 285.247 158.485V278.468C285.247 278.856 285.247 279.633 285.636 280.021C289.911 293.223 279.806 310.697 261.151 320.016Z" fill="#023047"/>
</svg>
