<svg width="554" height="72" viewBox="0 0 554 72" fill="none" xmlns="http://www.w3.org/2000/svg">
<g clip-path="url(#clip0)">
<path d="M150.192 63.6008C148.614 62.0161 147.877 59.639 147.877 56.4695C147.877 55.1489 148.088 53.4585 148.508 51.2927L156.189 15.2134C156.662 13.0476 158.451 11.3572 160.608 11.0931L161.239 10.9875C164.869 10.5121 167.868 13.7344 167.079 17.3264L159.503 52.8246C159.293 53.617 159.188 54.4622 159.188 55.3602C159.188 56.4167 159.451 57.1562 159.924 57.6316C160.398 58.1071 161.239 58.3184 162.397 58.3184C163.922 58.3184 165.343 57.6845 166.658 56.3638C167.762 55.3074 168.604 53.9339 169.183 52.3492C169.393 51.7681 169.972 51.3455 170.603 51.3455C171.708 51.3455 172.444 52.4548 172.024 53.4585C170.182 58.0014 167.973 61.1709 165.29 62.9669C162.239 65.0271 159.188 66.0308 156.189 66.0308C153.769 65.9779 151.717 65.1856 150.192 63.6008Z" fill="#FFB703"/>
<path d="M171.761 62.9142C169.604 60.9068 168.499 57.6845 168.499 53.3529C168.499 49.708 169.236 45.6933 170.656 41.3089C172.076 36.9244 174.391 33.1211 177.6 29.9516C180.809 26.7821 184.86 25.1445 189.857 25.1445C195.644 25.1445 198.537 27.6801 198.537 32.7513C198.537 35.7095 197.696 38.4563 196.012 40.9391C194.329 43.4219 192.067 45.4292 189.279 46.9083C186.49 48.3874 183.492 49.2854 180.335 49.4967C180.23 51.0814 180.178 52.1379 180.178 52.6662C180.178 55.2546 180.599 56.9978 181.493 57.9486C182.387 58.8995 183.808 59.3221 185.859 59.3221C188.7 59.3221 191.12 58.6882 193.171 57.3147C195.171 55.9941 197.433 53.9868 199.853 51.2927H202.535C196.696 61.0653 189.436 65.978 180.809 65.978C176.916 65.978 173.917 64.9215 171.761 62.9142ZM186.543 43.6332C188.279 42.3654 189.699 40.7806 190.804 38.8261C191.856 36.8716 192.435 34.8114 192.435 32.6456C192.435 30.4798 191.751 29.4233 190.436 29.4233C188.542 29.4233 186.701 31.0609 184.86 34.3888C183.071 37.7168 181.756 41.5202 180.967 45.7461C182.913 45.5877 184.807 44.9009 186.543 43.6332Z" fill="#FFB703"/>
<path d="M221.263 63.3895C219.738 61.6991 219.001 59.5333 219.001 56.9977C219.001 55.8884 219.106 54.6206 219.422 53.2472C219.685 51.8737 219.948 50.5003 220.264 49.1797C220.527 47.8591 220.737 47.0139 220.842 46.6441C221.263 44.7952 221.632 42.9992 222.052 41.2032C222.421 39.4071 222.631 37.928 222.631 36.8187C222.631 34.1247 221.684 32.7512 219.79 32.7512C218.423 32.7512 217.213 33.4379 216.161 34.7586C215.108 36.0792 214.267 37.8752 213.635 40.041L209.164 61.2765C208.638 63.7065 206.481 65.4497 204.008 65.4497H203.377C200.01 65.4497 197.538 62.333 198.222 59.0579L204.377 30.0043C204.903 27.5744 207.06 25.8312 209.532 25.8312H212.425C214.582 25.8312 216.213 27.8385 215.74 29.9515C218.37 26.9933 221.421 25.5143 224.998 25.5143C227.681 25.5143 229.786 26.2538 231.364 27.7329C232.942 29.212 233.731 31.4306 233.731 34.4416C233.731 35.9735 233.521 37.6639 233.152 39.5656C232.784 41.4673 232.258 43.7388 231.574 46.4328C231.153 48.0704 230.785 49.6551 230.417 51.2398C230.049 52.8246 229.891 54.0396 229.891 54.9376C229.891 55.9941 230.154 56.8393 230.627 57.4203C231.101 58.0014 231.89 58.2655 233.047 58.2655C234.625 58.2655 235.888 57.6845 236.835 56.5751C237.782 55.4658 238.729 53.6698 239.676 51.2927H242.99C241.043 57.1034 238.781 61.0124 236.256 62.9669C233.678 64.9743 231.048 65.9251 228.313 65.9251C225.104 65.9779 222.789 65.0799 221.263 63.3895Z" fill="#FFB703"/>
<path d="M241.675 62.8613C239.676 60.8011 238.676 57.5788 238.676 53.1944C238.676 49.2853 239.465 45.165 240.991 40.8862C242.516 36.6074 244.884 32.9625 247.935 29.9515C251.039 26.9933 254.669 25.4614 258.93 25.4614C261.087 25.4614 262.665 25.8312 263.717 26.5707C264.769 27.3103 265.295 28.314 265.295 29.4761V29.793L268.399 15.2134C268.872 13.0476 270.661 11.3572 272.818 11.0931L273.397 10.9875C277.026 10.5121 280.025 13.7344 279.236 17.3264L271.818 52.8246C271.608 53.617 271.503 54.4622 271.503 55.3602C271.503 56.4167 271.766 57.1562 272.239 57.6316C272.713 58.1071 273.554 58.3184 274.712 58.3184C276.185 58.3184 277.447 57.6845 278.552 56.4167C279.604 55.1489 280.498 53.4585 281.13 51.3455H284.444C281.235 60.8011 275.922 65.5553 268.609 65.5553C266.452 65.5553 264.716 64.9743 263.349 63.8121C262.034 62.65 261.192 60.9596 260.876 58.741C259.508 60.8539 257.878 62.5972 255.931 63.9706C253.985 65.344 251.775 66.0308 249.197 66.0308C246.146 65.9779 243.674 64.9214 241.675 62.8613ZM258.141 56.5223C259.403 55.3602 260.297 53.7226 260.771 51.7153V51.2927L264.664 33.121C264.19 31.2721 263.086 30.3213 261.455 30.3213C259.351 30.3213 257.457 31.5363 255.773 34.019C254.09 36.449 252.775 39.46 251.828 42.8936C250.881 46.38 250.407 49.391 250.407 52.0322C250.407 54.6735 250.776 56.3638 251.565 57.1034C252.301 57.8429 253.248 58.2127 254.353 58.2127C255.563 58.2655 256.825 57.6845 258.141 56.5223Z" fill="#FFB703"/>
<path d="M283.392 62.8085C281.13 60.8011 279.972 57.6316 279.972 53.3C279.972 49.6551 280.709 45.6404 282.129 41.3088C283.55 36.9244 285.864 33.1738 289.073 30.0043C292.282 26.8349 296.386 25.1973 301.383 25.1973C307.591 25.1973 310.958 28.7894 311.431 35.8679C312.588 35.6038 313.588 34.9699 314.535 33.9134C315.429 32.8569 316.271 31.6947 317.06 30.3741C318.217 30.3741 318.954 31.6419 318.428 32.6456C317.481 34.4416 316.586 35.9207 315.797 37.0828C314.693 38.7204 313.22 39.9882 311.431 40.9919C311.115 45.9574 310.116 50.3418 308.38 54.0924C306.644 57.8429 304.434 60.7483 301.699 62.7556C298.963 64.8158 295.965 65.8195 292.598 65.8195C288.758 65.8195 285.654 64.8158 283.392 62.8085ZM301.225 53.9339C302.909 50.7644 304.066 46.8554 304.697 42.2068C303.435 41.7314 302.804 40.5693 302.804 38.6148C302.804 36.5546 303.54 35.1812 305.013 34.4944C304.908 32.804 304.645 31.6419 304.171 30.9552C303.698 30.3213 303.014 29.9515 302.014 29.9515C300.278 29.9515 298.595 31.2193 297.017 33.7021C295.439 36.2376 294.176 39.2487 293.177 42.7879C292.177 46.38 291.704 49.4966 291.704 52.1907C291.704 54.7263 291.967 56.4167 292.545 57.3147C293.124 58.1599 294.176 58.6353 295.702 58.6353C297.753 58.6881 299.542 57.1034 301.225 53.9339Z" fill="#FFB703"/>
<path d="M377.61 63.3895C376.085 61.6991 375.348 59.5333 375.348 56.9977C375.348 55.8884 375.453 54.6206 375.769 53.2472C376.032 51.8738 376.295 50.5003 376.611 49.1797C376.874 47.8591 377.084 47.0139 377.189 46.6441C377.61 44.7952 377.978 42.9992 378.399 41.2032C378.767 39.4071 378.925 37.928 378.925 36.8187C378.925 34.1247 377.978 32.7512 376.085 32.7512C374.717 32.7512 373.507 33.4379 372.455 34.7586C371.403 36.0792 370.561 37.8752 369.93 40.041L365.458 61.2765C364.932 63.7065 362.775 65.4497 360.303 65.4497H359.671C356.304 65.4497 353.832 62.333 354.516 59.0579L358.935 38.0865C359.093 37.4526 359.198 36.8187 359.198 36.0792C359.198 33.7549 358.409 32.5928 356.831 32.5928C355.358 32.5928 354.095 33.2795 352.99 34.6001C351.886 35.9207 351.044 37.7167 350.413 39.9354L345.941 61.1709C345.415 63.6008 343.258 65.344 340.786 65.344H340.154C336.787 65.344 334.315 62.2274 334.999 58.9523L341.154 29.8987C341.68 27.4688 343.837 25.7255 346.309 25.7255H349.203C351.359 25.7255 352.99 27.7329 352.517 29.8459C355.2 26.8349 358.409 25.3558 362.144 25.3558C366.773 25.3558 369.456 27.6272 370.245 32.1702C373.139 27.6801 376.821 25.4086 381.24 25.4086C383.923 25.4086 386.027 26.1481 387.605 27.6272C389.184 29.1063 389.973 31.325 389.973 34.336C389.973 35.8679 389.762 37.5583 389.447 39.46C389.078 41.3616 388.552 43.6331 387.868 46.3272C387.448 47.9647 387.079 49.5495 386.711 51.1342C386.343 52.7189 386.185 53.9339 386.185 54.8319C386.185 55.8884 386.395 56.7336 386.869 57.3147C387.342 57.8958 388.131 58.1599 389.341 58.1599C390.92 58.1599 392.182 57.5788 393.129 56.4695C394.076 55.3602 395.023 53.5641 395.97 51.187H399.284C397.338 56.9977 395.076 60.9068 392.55 62.8613C389.973 64.8686 387.342 65.8195 384.607 65.8195C381.45 65.9779 379.083 65.0799 377.61 63.3895Z" fill="#FFB703"/>
<path d="M397.706 63.6008C396.128 62.0161 395.391 59.639 395.391 56.4695C395.391 55.1489 395.602 53.4585 396.022 51.2927L400.494 30.0572C401.02 27.6272 403.177 25.884 405.649 25.884H406.281C409.647 25.884 412.12 29.0007 411.436 32.2758L407.122 52.8246C406.965 53.617 406.859 54.3565 406.859 55.0432C406.859 57.209 407.648 58.2655 409.227 58.2655C410.7 58.2655 411.962 57.6316 413.014 56.4167C414.066 55.2017 414.908 53.4585 415.539 51.2927L420.011 30.0572C420.537 27.6272 422.694 25.884 425.166 25.884H425.798C429.165 25.884 431.637 29.0007 430.953 32.2758L426.639 52.8246C426.429 53.617 426.324 54.4621 426.324 55.3602C426.324 56.4167 426.587 57.1562 427.06 57.6316C427.534 58.107 428.375 58.3183 429.533 58.3183C431.006 58.3183 432.268 57.6844 433.373 56.4167C434.425 55.1489 435.319 53.4585 435.951 51.3455H439.265C437.319 57.0505 434.899 60.9067 432.058 62.9669C429.165 65.0271 426.324 66.0307 423.43 66.0307C421.168 66.0307 419.38 65.3968 418.012 64.1291C416.697 62.8613 415.855 61.0124 415.592 58.5296C413.803 61.435 411.91 63.4423 409.963 64.4988C407.964 65.5553 405.965 66.0836 403.913 66.0836C401.283 65.9779 399.284 65.1855 397.706 63.6008ZM425.377 6.07477C427.534 6.07477 428.849 8.45188 427.692 10.3007L420.853 21.077C418.117 21.077 416.329 18.2244 417.486 15.7417L420.642 9.08577C421.484 7.23691 423.325 6.07477 425.377 6.07477Z" fill="#FFB703"/>
<path d="M438.476 64.4989C436.74 63.548 435.477 62.2802 434.583 60.6955C433.741 59.1636 433.321 57.526 433.321 55.8356C433.321 54.0924 433.741 52.5605 434.53 51.2927C435.372 50.0249 436.319 49.0741 437.476 48.493C439.528 44.7953 441.317 41.0447 442.842 37.2942C444 34.4416 445.104 31.3778 446.157 28.2083C446.788 26.3067 448.471 24.8804 450.47 24.6163L453.153 24.2465C456.204 23.8239 458.94 26.1482 459.098 29.212C459.361 34.336 459.729 39.7241 460.202 45.4292C460.465 48.5986 460.623 50.9229 460.623 52.3492C460.623 53.5642 460.518 54.5678 460.308 55.3602C462.78 53.9339 464.674 52.6133 465.989 51.3984H469.303C465.937 55.3074 461.886 58.5825 457.256 61.3294C455.731 62.9669 453.837 64.1819 451.628 64.9215C449.366 65.661 447.156 66.0836 444.894 66.0836C442.316 65.978 440.212 65.4497 438.476 64.4989ZM447.209 57.9486C448.524 56.7865 449.208 54.9376 449.208 52.3492C449.208 50.7645 449.05 48.5458 448.734 45.6933C448.208 39.6713 447.84 35.6566 447.682 33.5436C446.42 37.7168 444.263 42.7351 441.264 48.5458C442.474 49.1797 443.105 50.1306 443.105 51.3455C443.105 52.3492 442.79 53.2472 442.106 54.0396C441.422 54.832 440.633 55.2546 439.633 55.2546C438.529 55.2546 437.792 54.9376 437.529 54.1981C437.529 56.0997 437.897 57.526 438.686 58.424C439.423 59.322 440.685 59.7446 442.369 59.7446C444.263 59.6918 445.893 59.1107 447.209 57.9486Z" fill="#FFB703"/>
<path d="M467.725 63.6008C466.147 62.0161 465.411 59.6389 465.411 56.4695C465.411 55.1489 465.621 53.4585 466.042 51.2926L470.513 30.0571C471.039 27.6272 473.196 25.884 475.669 25.884H476.3C479.667 25.884 482.139 29.0006 481.456 32.2758L477.142 52.8246C476.931 53.6169 476.826 54.4621 476.826 55.3601C476.826 56.4166 477.089 57.1562 477.563 57.6316C478.036 58.107 478.878 58.3183 480.035 58.3183C481.561 58.3183 482.981 57.6844 484.296 56.3638C485.611 55.096 486.558 53.4056 487.137 51.3455H490.451C488.505 57.0505 485.98 60.9067 482.929 62.9669C479.877 65.0271 476.879 66.0307 473.828 66.0307C471.303 65.9779 469.251 65.1855 467.725 63.6008ZM474.775 19.7563C473.617 18.5942 473.038 17.2207 472.986 15.636C472.933 13.8928 473.565 12.1496 474.775 10.8818C475.984 9.66682 477.457 9.03293 479.193 9.03293C480.93 9.03293 482.402 9.66682 483.665 10.8818C484.875 12.1496 485.506 13.6287 485.506 15.3719C485.506 17.1151 484.875 18.5942 483.665 19.8092C482.402 21.0241 480.666 21.7108 478.93 21.6052C477.3 21.4995 475.932 20.9185 474.775 19.7563Z" fill="#FFB703"/>
<path d="M489.294 62.9141C487.137 60.9068 486.032 57.6845 486.032 53.3529C486.032 49.708 486.769 45.6933 488.189 41.3089C489.61 36.9244 491.924 33.1211 495.133 29.9516C498.29 26.7821 502.34 25.1445 507.233 25.1445C510.389 25.1445 512.651 25.8313 513.967 27.2047C515.334 28.5781 515.966 30.3213 515.966 32.4343C515.966 34.2832 515.545 35.7095 514.756 36.7131C513.967 37.7168 512.967 38.245 511.757 38.245C511.757 38.245 511.757 38.245 511.704 38.245C510.284 38.245 509.232 36.8188 509.548 35.3925C509.811 34.3888 509.916 33.4908 509.916 32.5928C509.916 31.5891 509.705 30.7968 509.337 30.2157C508.969 29.6346 508.39 29.3705 507.706 29.3705C506.128 29.3705 504.55 30.6911 502.972 33.2795C501.394 35.8679 500.078 39.0374 499.079 42.6823C498.079 46.38 497.606 49.708 497.606 52.6662C497.606 55.2546 498.027 56.9978 498.921 57.9486C499.815 58.8995 501.236 59.3221 503.287 59.3221C506.128 59.3221 508.548 58.6882 510.6 57.3147C512.546 56.0469 514.65 54.1981 516.913 51.6625C517.123 51.3984 517.439 51.2927 517.807 51.2927C518.754 51.2927 519.332 52.3492 518.806 53.1416C513.177 61.6992 506.339 65.9252 498.29 65.9252C494.449 65.978 491.451 64.9215 489.294 62.9141Z" fill="#FFB703"/>
<path d="M519.332 62.8613C517.333 60.8011 516.334 57.5788 516.334 53.1943C516.334 49.2853 517.123 45.165 518.648 40.8862C520.174 36.6074 522.541 32.9625 525.593 29.9515C528.696 26.9933 532.326 25.4614 536.587 25.4614C538.744 25.4614 540.322 25.8312 541.427 26.5707C542.479 27.3103 543.005 28.3139 543.005 29.4761V30.0571C543.531 27.6272 545.636 25.8312 548.161 25.8312H548.739C552.106 25.8312 554.579 28.9478 553.895 32.223L549.581 52.7717C549.371 53.5641 549.265 54.4093 549.265 55.3073C549.265 56.3638 549.528 57.1034 550.002 57.5788C550.475 58.0542 551.317 58.2655 552.474 58.2655C553.211 58.2655 553.737 59.0579 553.474 59.7446C552.58 61.7519 551.738 63.231 550.896 64.1819C549.844 65.3968 548.319 65.9779 546.319 65.9779C544.163 65.9779 542.427 65.344 541.059 64.0234C539.744 62.7556 538.902 60.9067 538.586 58.5825C535.377 63.4951 531.432 65.9251 526.855 65.9251C523.857 65.9779 521.331 64.9214 519.332 62.8613ZM535.903 56.4166C537.166 55.2017 538.06 53.4585 538.534 51.2926L542.321 33.3851C542.321 32.6984 542.058 32.0117 541.532 31.3778C541.006 30.7439 540.164 30.3741 539.06 30.3741C536.956 30.3741 535.062 31.5891 533.378 34.0718C531.695 36.5017 530.38 39.5128 529.433 42.9464C528.486 46.4328 528.012 49.4438 528.012 52.085C528.012 54.7263 528.381 56.4166 529.17 57.1562C529.906 57.8957 530.853 58.2655 531.958 58.2655C533.273 58.2655 534.588 57.6316 535.903 56.4166Z" fill="#FFB703"/>
<path d="M0 7.81845V67.3518C0 70.3628 2.99858 72.4758 5.83933 71.3665C14.309 68.0914 31.2483 64.0239 52.1331 71.6835C54.9213 72.7399 57.9199 70.627 57.9199 67.616V7.81845C57.9199 5.91676 56.6573 4.22637 54.8687 3.69813C47.2933 1.37384 26.6715 -3.32755 3.05118 3.69813C1.26256 4.22637 0 5.91676 0 7.81845Z" fill="#FFB703"/>
<path d="M65.0218 7.81811V67.3515C65.0218 70.3625 68.0203 72.4755 70.8611 71.3662C79.3308 68.091 96.2701 64.0235 117.155 71.6831C119.943 72.7396 122.942 70.6266 122.942 67.6156V7.81811C122.942 5.91643 121.679 4.22604 119.89 3.69779C112.315 1.37351 91.6933 -3.32789 68.073 3.69779C66.2843 4.22604 65.0218 5.91643 65.0218 7.81811Z" fill="#FFB703"/>
<path d="M38.0346 45.6934C35.4043 47.014 32.5635 46.5914 31.6692 44.7954C30.7749 42.9993 32.1427 40.4637 34.773 39.1431C35.7725 38.6677 36.772 38.4036 37.6664 38.4036C37.9294 38.4036 38.1924 38.1395 38.1924 37.8753V28.8951C38.1924 28.6838 37.982 28.4725 37.7716 28.4725H23.8834C23.673 28.4725 23.4626 28.6838 23.4626 28.8951V40.5694C23.4626 40.5694 23.4626 40.6222 23.5152 40.6222C24.4095 42.4183 23.0417 44.9538 20.4114 46.2744C17.7811 47.5951 14.9403 47.1725 14.046 45.3764C13.1517 43.5804 14.5195 41.0448 17.1498 39.7242C18.0967 39.2488 19.0962 38.9846 19.9905 38.9846C20.2536 38.9846 20.5166 38.7205 20.5166 38.4564V23.7183C20.5166 23.0316 21.0953 22.4505 21.7792 22.4505H40.0337C40.7175 22.4505 41.2962 23.0316 41.2962 23.7183V40.0411C41.2962 40.094 41.2962 40.1996 41.3488 40.2524C41.8749 42.0485 40.5071 44.4256 38.0346 45.6934Z" fill="#023047"/>
<path d="M100.321 43.5277C97.6904 44.8483 94.8497 44.4257 93.9554 42.6296C93.0611 40.8336 94.4288 38.298 97.0592 36.9774C98.0587 36.502 99.0582 36.2379 99.9525 36.2379C100.216 36.2379 100.479 35.9737 100.479 35.7096V26.7294C100.479 26.5181 100.268 26.3068 100.058 26.3068H86.1696C85.9592 26.3068 85.7487 26.5181 85.7487 26.7294V38.4037C85.7487 38.4037 85.7487 38.4565 85.8014 38.4565C86.6957 40.2525 85.3279 42.7881 82.6976 44.1087C80.0672 45.4293 77.2265 45.0068 76.3322 43.2107C75.4379 41.4147 76.8056 38.8791 79.436 37.5585C80.3829 37.0831 81.3824 36.8189 82.2767 36.8189C82.5397 36.8189 82.8028 36.5548 82.8028 36.2907V21.5526C82.8028 20.8659 83.3814 20.2848 84.0653 20.2848H102.32C103.004 20.2848 103.582 20.8659 103.582 21.5526V37.8754C103.582 37.9282 103.582 38.0339 103.635 38.0867C104.214 39.8828 102.846 42.2599 100.321 43.5277Z" fill="#023047"/>
</g>
<defs>
<clipPath id="clip0">
<rect width="554" height="72" fill="white"/>
</clipPath>
</defs>
</svg>
